<?xml version="1.0" standalone="no"?>
<!DOCTYPE svg PUBLIC "-//W3C//DTD SVG 20010904//EN" "http://www.w3.org/TR/2001/REC-SVG-20010904/DTD/svg10.dtd">
<svg xmlns="http://www.w3.org/2000/svg" version="1.0" width="445.000000pt" height="384.000000pt" viewBox="0 0 445.000000 384.000000" preserveAspectRatio="xMidYMid meet">
<metadata>
Created by potrace 1.16, written by Peter Selinger 2001-2019
<meta name="Producer" content="Online-Convert"/></metadata>
<g transform="translate(0.000000,384.000000) scale(0.100000,-0.100000)" fill="#000000" stroke="none">
<path d="M1810 3359 c-1313 -21 -1335 -22 -1366 -45 -49 -36 -65 -67 -75 -145 -5 -41 -10 -398 -11 -794 l-3 -720 24 -59 c49 -123 147 -188 308 -207 124 -14 1935 -4 1986 11 22 6 41 10 43 8 2 -2 -3 -46 -11 -98 -24 -159 -30 -238 -30 -412 l0 -167 28 -29 27 -29 -14 -64 c-21 -87 -40 -301 -33 -366 l6 -53 -183 0 c-321 0 -610 -12 -589 -24 25 -15 2136 -14 2178 1 25 9 11 11 -81 12 -61 1 -159 4 -217 8 l-107 6 0 128 c0 128 -13 259 -30 312 -9 26 -6 32 26 62 l36 34 -8 83 c-19 234 -16 425 12 688 9 90 -13 5 -31 -115 -20 -134 -25 -372 -11 -537 8 -106 8 -107 -17 -132 l-26 -26 -440 0 -440 0 -28 24 -28 24 -3 164 c-3 139 2 206 32 453 40 321 46 435 12 225 l-21 -135 -40 -15 c-33 -12 -92 -15 -330 -13 -159 2 -513 -1 -785 -7 -530 -10 -885 -2 -977 24 -132 36 -192 118 -213 292 -13 114 3 1442 19 1493 14 46 47 79 90 90 47 12 1473 34 1881 30 296 -4 318 -5 361 -25 25 -12 58 -34 72 -50 l27 -28 -28 -31 -27 -30 28 24 c20 18 30 22 38 14 9 -9 2 -23 -24 -54 l-36 -42 -1048 1 c-576 0 -1109 -2 -1183 -6 -231 -12 1039 -25 1679 -17 l578 8 5 -52 c4 -41 12 -59 37 -85 24 -25 31 -41 31 -71 -1 -67 -17 -116 -49 -149 -39 -40 -40 -77 -5 -105 21 -17 24 -25 19 -54 -9 -44 9 -109 40 -145 23 -27 25 -39 25 -120 l0 -89 -47 -18 c-27 -9 -154 -64 -284 -121 -130 -57 -241 -104 -246 -104 -6 0 -59 29 -118 65 l-108 65 194 1 c298 2 347 14 89 22 -118 4 -242 6 -275 5 -58 -2 -66 1 -213 81 -109 59 -159 81 -175 77 -33 -8 -49 22 -36 66 11 38 -6 430 -22 489 -13 52 -43 85 -93 104 -38 15 -91 16 -467 13 -465 -3 -455 -2 -495 -63 -19 -28 -35 -210 -37 -422 -2 -116 -1 -122 23 -148 14 -15 36 -32 50 -37 48 -19 257 -38 490 -44 224 -7 236 -8 265 -30 31 -24 181 -77 199 -71 6 2 -20 14 -59 27 -102 33 -143 57 -165 93 -11 18 -20 26 -20 18 0 -12 -42 -13 -262 -8 -387 9 -476 24 -500 85 -13 35 -1 451 15 500 7 19 25 45 40 56 28 21 38 21 460 21 416 0 433 -1 467 -20 60 -35 68 -64 81 -311 12 -248 11 -275 -12 -229 -18 37 -52 41 -57 7 -3 -21 -6 -20 -55 23 -56 49 -68 53 -87 30 -11 -13 -63 -15 -354 -16 -187 0 -361 -4 -386 -8 -67 -11 362 -25 543 -18 115 5 147 3 147 -6 0 -7 -4 -17 -9 -22 -24 -26 -16 -60 22 -92 52 -44 57 -41 13 7 -34 38 -43 60 -30 72 3 3 27 -16 54 -43 27 -27 53 -49 58 -49 5 0 -13 22 -39 49 -46 46 -65 91 -37 91 7 0 32 -19 56 -42 l44 -43 -36 48 c-20 27 -36 53 -36 58 0 19 29 8 71 -29 77 -66 76 -65 71 -33 -7 49 15 43 47 -13 16 -30 35 -57 41 -61 7 -4 -1 -19 -19 -41 -43 -49 -58 -102 -37 -141 55 -107 380 -382 544 -461 130 -62 272 -53 477 30 55 22 105 41 110 42 6 1 33 15 60 30 60 33 53 31 -100 -29 -139 -54 -241 -81 -340 -91 l-70 -6 30 27 30 26 -40 -7 c-22 -3 -65 -6 -95 -5 -50 2 -64 8 -150 67 -149 101 -180 124 -257 198 l-73 69 36 66 c20 37 48 80 62 98 l27 31 130 -72 c72 -39 169 -95 216 -124 48 -28 92 -52 99 -52 7 0 125 52 262 116 137 63 280 126 319 139 l70 24 36 -24 c20 -14 54 -30 77 -37 48 -14 224 -14 282 -1 35 9 55 5 143 -23 298 -96 445 -257 507 -549 35 -168 18 -514 -32 -635 -33 -77 -77 -101 -188 -102 -57 0 -72 -3 -51 -8 84 -21 173 -4 223 42 51 48 94 274 94 488 -1 267 -68 457 -211 601 -81 80 -164 128 -303 173 -58 19 -115 39 -127 45 -28 15 -60 80 -76 155 -13 58 -13 59 -14 20 -1 -48 20 -113 49 -154 l20 -28 -67 -8 c-83 -9 -226 8 -282 33 l-42 18 80 95 c43 52 78 96 76 98 -2 2 -23 -7 -47 -19 -86 -44 -199 -16 -238 61 -26 51 -27 83 -1 75 10 -3 29 -1 42 4 l24 10 -27 0 c-43 1 -58 11 -58 40 0 17 -10 36 -25 49 -31 27 -31 43 -4 68 36 32 49 70 49 139 l0 66 68 -6 c112 -10 127 -14 154 -43 26 -27 39 -61 55 -137 l8 -40 69 0 c59 0 70 -3 83 -22 16 -24 9 -45 -33 -96 -49 -59 -42 -93 27 -126 37 -18 38 -18 94 5 32 12 69 33 82 46 31 29 71 96 89 151 l14 42 -5 -40 c-6 -54 -56 -151 -107 -211 l-42 -49 43 40 c79 75 140 238 128 344 -4 37 -3 42 7 25 6 -10 11 -58 11 -106 0 -58 3 -80 8 -65 5 12 7 52 4 89 -6 99 -71 200 -138 214 -24 6 -25 8 -21 59 6 71 -2 97 -40 140 -40 46 -71 61 -136 67 -46 5 -58 2 -90 -22 l-38 -27 -49 34 c-28 18 -56 31 -63 28 -7 -3 -10 0 -7 5 9 14 -62 40 -111 40 -23 0 -55 -5 -69 -10 -24 -9 -32 -6 -71 29 -69 61 -115 73 -294 76 -85 2 -405 -1 -710 -6z m1323 -205 l56 -28 40 28 c125 87 284 -37 242 -188 -9 -34 -8 -38 8 -33 52 13 85 -49 85 -163 1 -77 -2 -92 -32 -152 -55 -112 -147 -167 -225 -134 -20 8 -37 22 -37 30 0 8 20 38 45 67 55 64 60 106 19 138 -29 23 -59 26 -98 12 -30 -12 -41 -1 -49 53 -14 88 -92 155 -182 156 -109 1 -165 39 -165 112 0 125 148 176 293 102z m516 -2551 l1 -23 -312 0 c-286 0 -558 17 -589 36 -15 9 -10 24 6 18 9 -4 15 0 15 10 0 14 44 16 433 18 424 3 432 3 439 -17 3 -11 6 -30 7 -42z m-782 -34 c90 -14 604 -18 709 -6 l71 8 6 -53 c3 -29 9 -115 13 -190 l7 -138 -230 0 -230 0 17 53 c23 72 31 117 20 117 -5 0 -21 -38 -36 -85 l-28 -85 -243 0 c-134 0 -243 3 -243 8 0 4 7 88 15 187 8 99 15 190 15 203 0 22 1 22 30 7 16 -8 64 -20 107 -26z"/>
<path d="M3885 3357 c-10 -8 -24 -29 -30 -47 l-11 -33 -22 36 c-12 21 -27 37 -33 37 -7 0 -36 -18 -66 -40 -57 -43 -64 -64 -38 -110 21 -36 19 -40 -17 -29 -18 5 -40 7 -49 4 -17 -6 -29 -52 -29 -117 0 -36 2 -38 50 -55 l50 -18 -22 -17 c-13 -10 -18 -18 -13 -18 6 0 23 10 38 23 l29 23 -50 13 c-28 7 -55 18 -60 24 -9 11 0 113 11 123 2 2 19 0 38 -5 19 -5 47 -12 62 -15 l29 -7 -31 54 c-17 30 -31 59 -31 64 0 9 82 73 93 73 3 0 21 -25 40 -56 19 -30 37 -52 40 -47 2 4 8 26 12 48 13 74 33 87 104 68 22 -6 23 -10 19 -69 -2 -35 -3 -64 -1 -64 2 0 21 11 43 25 57 36 84 33 111 -12 l23 -37 -48 -42 -49 -42 44 -11 c24 -7 51 -15 59 -20 19 -10 25 -64 10 -92 -11 -20 -17 -21 -71 -15 l-59 6 30 -54 c33 -57 32 -76 -5 -100 -37 -25 -57 -19 -95 26 l-36 41 -13 -56 c-6 -30 -17 -60 -24 -65 -12 -10 -101 -1 -113 11 -4 4 -2 30 4 59 5 29 9 54 7 56 -2 2 -20 -7 -42 -21 -65 -40 -72 -40 -105 -5 l-30 33 22 -33 c30 -45 47 -49 92 -24 l39 21 -7 -49 c-7 -56 0 -63 83 -74 58 -7 80 6 90 55 7 36 10 36 44 3 32 -31 61 -28 107 11 37 31 44 56 26 91 -18 35 -19 34 19 34 17 0 37 4 43 8 35 23 46 118 18 147 -9 9 -29 19 -45 22 l-29 5 30 35 c33 37 33 59 2 98 -40 49 -78 58 -120 29 -22 -15 -22 -14 -22 24 0 26 -7 45 -20 57 -26 24 -99 31 -125 12z"/>
<path d="M3873 3169 c-104 -30 -112 -173 -13 -224 37 -19 54 -19 96 1 123 59 48 260 -83 223z m72 -25 c22 -9 45 -57 45 -95 0 -40 -43 -89 -78 -89 -56 0 -91 37 -92 98 0 68 61 110 125 86z"/>
<path d="M1407 2818 c-9 -7 -23 -33 -30 -58 -16 -56 -37 -61 -83 -21 -58 51 -95 41 -129 -35 -29 -65 -55 -72 -75 -21 -8 17 -20 40 -28 50 -17 19 -63 23 -91 7 -24 -12 -48 -72 -55 -135 l-6 -50 21 65 c39 120 86 141 129 55 20 -40 31 -51 53 -53 36 -4 55 12 78 66 10 23 25 45 34 48 8 3 31 -7 52 -23 21 -16 46 -32 55 -36 27 -10 64 28 77 78 9 37 15 45 35 45 12 0 30 -8 38 -17 33 -37 67 -189 53 -233 l-6 -20 -26 20 c-31 24 -105 27 -143 5 -35 -20 -74 -18 -95 5 -26 29 -79 36 -127 17 -37 -15 -42 -15 -65 0 -23 15 -28 15 -76 -5 -29 -12 -60 -22 -69 -22 -9 0 -30 19 -45 43 -52 77 -115 85 -178 22 -33 -33 -55 -99 -55 -162 0 -21 2 -23 15 -13 9 7 12 22 9 38 -6 34 31 109 68 135 37 27 90 17 108 -21 22 -43 52 -72 75 -72 12 0 43 11 69 25 51 27 71 31 81 15 9 -14 -116 -70 -155 -70 -17 0 -48 9 -70 20 -22 11 -52 20 -67 20 -32 0 -95 -31 -101 -49 -2 -6 11 -3 30 9 43 26 71 25 136 -5 30 -14 61 -25 70 -25 8 0 71 23 139 50 68 28 132 50 141 50 10 0 33 -11 52 -25 41 -30 68 -31 120 -5 71 36 132 20 160 -42 l17 -38 1 112 c2 77 -3 129 -13 166 -25 84 -82 124 -128 90z"/>
<path d="M1370 2161 l-25 -7 0 -284 0 -285 56 -3 c37 -2 59 2 66 10 6 8 13 121 17 275 7 256 7 262 -13 282 -21 21 -54 25 -101 12z m84 -29 c3 -5 2 -124 -1 -265 l-6 -257 -39 0 -38 0 0 265 0 265 39 0 c22 0 42 -4 45 -8z"/>
<path d="M978 2098 c-15 -12 -16 -43 -15 -263 l2 -250 60 -3 c47 -3 62 0 72 14 10 13 13 77 13 250 0 198 -2 235 -16 248 -19 19 -93 21 -116 4z m100 -183 c2 -88 0 -193 -3 -232 l-7 -73 -39 0 -39 0 0 236 0 235 43 -3 42 -3 3 -160z"/>
<path d="M1542 2047 c-12 -14 -20 -437 -8 -455 10 -16 111 -16 123 1 6 6 13 104 17 216 8 243 6 251 -73 251 -27 0 -53 -6 -59 -13z m98 -228 l0 -210 -42 3 -43 3 -3 195 c-1 107 0 200 2 207 3 8 22 13 46 13 l40 0 0 -211z"/>
<path d="M791 1986 c-8 -9 -11 -73 -9 -207 l3 -194 55 -3 c43 -3 57 1 67 14 18 24 18 375 1 392 -17 17 -103 15 -117 -2z m99 -196 l0 -180 -45 0 -45 0 0 180 0 180 45 0 45 0 0 -180z"/>
<path d="M1172 1922 c-16 -11 -25 -311 -10 -329 6 -8 33 -13 63 -13 41 0 54 4 60 18 4 9 10 79 12 155 5 123 4 139 -12 157 -19 21 -87 28 -113 12z m96 -164 l-3 -143 -41 -3 -41 -3 -6 137 c-3 75 -4 141 -1 146 3 4 25 8 50 8 l45 0 -3 -142z"/>
<path d="M609 1830 c-12 -7 -16 -30 -17 -112 -2 -139 -2 -138 62 -138 31 0 58 5 64 13 17 20 19 211 3 231 -15 18 -85 22 -112 6z m91 -24 c8 -11 10 -41 5 -105 l-8 -91 -43 0 -44 0 0 98 c0 54 3 102 7 105 12 13 70 7 83 -7z"/>
<path d="M1363 1346 c-12 -9 -27 -32 -33 -51 l-12 -36 -30 42 c-18 25 -35 39 -44 35 -30 -12 -124 -89 -124 -103 0 -7 9 -31 20 -53 11 -22 20 -41 20 -43 0 -3 -21 0 -46 5 -29 6 -49 7 -55 1 -6 -6 -15 -41 -21 -78 -10 -65 -9 -70 12 -87 12 -9 37 -20 56 -24 19 -3 34 -9 34 -12 0 -4 -12 -17 -27 -30 l-28 -24 30 17 c71 42 71 41 6 59 -33 9 -63 21 -66 27 -8 11 4 111 14 128 6 10 22 9 68 -3 34 -9 64 -16 67 -16 3 0 -10 28 -29 63 -19 34 -31 67 -27 73 10 14 101 78 105 73 2 -2 18 -28 36 -56 18 -29 37 -53 41 -53 5 0 11 19 15 43 13 82 48 104 121 77 26 -10 27 -12 21 -75 -4 -36 -3 -65 0 -65 3 0 28 14 54 31 33 21 55 29 69 24 23 -7 60 -60 60 -85 0 -9 -23 -34 -52 -55 l-52 -40 59 -13 c33 -7 65 -18 72 -24 16 -13 17 -57 3 -94 -10 -27 -11 -27 -81 -21 l-70 6 19 -27 c59 -84 60 -117 2 -147 -44 -23 -55 -19 -91 30 -19 24 -36 45 -39 45 -4 0 -11 -27 -18 -59 -7 -32 -18 -64 -25 -70 -14 -11 -105 -5 -126 8 -8 5 -8 23 0 64 7 32 9 60 6 63 -3 4 -19 -3 -36 -15 -16 -12 -45 -28 -63 -36 -19 -8 -26 -14 -15 -15 10 0 36 9 59 21 l41 21 -7 -27 c-20 -79 -19 -84 6 -94 13 -5 49 -12 79 -16 45 -6 59 -4 72 10 10 9 17 20 17 25 0 5 5 21 10 36 l11 27 32 -31 c18 -18 39 -32 47 -32 19 0 81 37 98 58 17 22 15 68 -4 97 l-16 25 46 0 c53 0 74 23 83 89 7 51 -14 85 -62 101 l-35 12 30 28 c17 16 30 38 30 52 0 28 -41 88 -72 104 -23 12 -69 4 -94 -17 -12 -10 -14 -4 -14 35 0 38 -4 48 -25 62 -37 24 -105 29 -132 10z"/>
<path d="M1344 1139 c-93 -27 -119 -160 -43 -223 41 -35 75 -42 122 -25 53 19 80 57 80 111 0 55 -24 101 -66 127 -37 23 -46 24 -93 10z m72 -24 c68 -28 82 -128 26 -181 -55 -52 -148 -9 -159 72 -4 33 -1 45 23 73 22 27 49 45 72 50 1 1 18 -6 38 -14z"/>
<path d="M592 1088 c-23 -28 -44 -97 -49 -160 l-6 -67 -27 37 c-44 60 -68 78 -88 65 -14 -9 -17 -25 -15 -89 l2 -79 -19 36 c-22 42 -46 55 -67 37 -34 -27 7 -181 63 -240 26 -26 26 -26 5 -33 -50 -16 -9 -21 168 -24 201 -3 351 6 351 20 0 5 -11 9 -26 9 l-25 0 25 33 c64 83 85 191 51 256 -20 40 -41 39 -54 -2 -6 -18 -25 -49 -42 -68 l-30 -34 6 46 c7 55 -10 141 -35 171 -15 18 -20 20 -33 10 -8 -7 -18 -28 -21 -47 -4 -19 -13 -49 -20 -65 -13 -31 -13 -31 -36 57 -33 129 -53 161 -78 131z m47 -124 c28 -109 41 -216 34 -291 -6 -60 -7 -63 -33 -63 -26 0 -27 3 -33 59 -4 33 -18 89 -33 125 -24 62 -25 70 -15 130 13 76 39 142 50 130 5 -5 18 -45 30 -90z m140 -28 c22 -89 15 -161 -26 -247 -27 -55 -43 -78 -57 -78 -15 -1 -17 4 -11 22 4 12 9 67 11 121 2 65 9 107 18 122 9 12 21 41 28 63 7 23 16 41 19 41 4 0 12 -20 18 -44z m-257 -100 c36 -57 78 -166 78 -207 0 -15 -7 -19 -40 -19 -36 0 -41 4 -64 43 -37 64 -57 134 -63 217 l-6 75 28 -25 c15 -14 45 -52 67 -84z m402 -34 c0 -42 -7 -71 -28 -112 -41 -82 -46 -86 -110 -82 l-55 4 19 37 c10 21 48 75 84 120 36 46 66 90 66 99 0 13 3 13 12 4 7 -7 13 -38 12 -70z m-529 -25 c17 -22 49 -69 72 -103 45 -67 43 -74 -17 -74 -23 0 -33 8 -53 44 -34 61 -57 133 -56 175 0 32 2 34 12 17 7 -10 26 -36 42 -59z"/>
<path d="M892 558 c-1 -9 -7 -39 -13 -66 -9 -46 -13 -50 -51 -61 -22 -7 -46 -15 -53 -17 -7 -3 -29 9 -49 26 -41 37 -66 36 -114 -5 -38 -32 -62 -32 -92 0 -27 29 -56 32 -81 9 -16 -14 -18 -12 -34 43 -21 77 -23 81 -24 58 -1 -29 65 -328 77 -352 15 -27 51 -33 192 -33 108 0 118 2 137 23 42 44 118 295 110 359 -2 18 -5 25 -5 16z m-376 -139 c34 -36 68 -34 116 6 37 31 49 31 86 0 35 -29 49 -31 99 -10 20 8 38 14 40 11 5 -4 -27 -98 -37 -109 -4 -5 -27 1 -50 13 -36 18 -46 20 -71 10 -15 -7 -34 -18 -40 -26 -17 -20 -55 -17 -99 8 -37 22 -40 22 -74 6 l-35 -17 -12 54 c-10 43 -9 57 1 70 19 23 43 18 76 -16z m257 -106 c18 -10 34 -19 36 -20 6 -4 -21 -67 -37 -85 -13 -15 -34 -18 -143 -18 -143 0 -152 4 -164 67 -5 29 -3 40 11 50 25 18 54 16 89 -7 40 -27 74 -25 115 5 40 30 52 31 93 8z"/>
</g>
</svg>
